<?xml version="1.0" encoding="UTF-8"?>
<svg width="64px" height="73px" viewBox="0 0 64 73" version="1.1" xmlns="http://www.w3.org/2000/svg" xmlns:xlink="http://www.w3.org/1999/xlink">
    <title>编组</title>
    <defs>
        <polygon id="path-1" points="0 0.458046686 63.8391205 0.458046686 63.8391205 70.5133736 0 70.5133736"></polygon>
    </defs>
    <g id="页面-1" stroke="none" stroke-width="1" fill="none" fill-rule="evenodd">
        <g id="选择抽奖奖项类型" transform="translate(-864.000000, -277.000000)">
            <g id="编组" transform="translate(864.000000, 277.500000)">
                <g transform="translate(0.000000, 0.124710)">
                    <mask id="mask-2" fill="white">
                        <use xlink:href="#path-1"></use>
                    </mask>
                    <g id="Clip-2"></g>
                    <path d="M63.8391205,32.3754507 C63.8391205,14.7767842 49.5190426,0.457871859 31.9192106,0.457871859 C14.3199613,0.457871859 -0.00011655132,14.7767842 -0.00011655132,32.3754507 L-0.00011655132,38.5946292 C-0.00011655132,56.1950439 14.3199613,70.5133736 31.9192106,70.5133736 C49.5190426,70.5133736 63.8391205,56.1950439 63.8391205,38.5946292 L63.8391205,32.3754507 Z" id="Fill-1" fill="#8E141D" mask="url(#mask-2)"></path>
                </g>
                <path d="M60.5224196,32.5001607 C60.5224196,48.2981093 47.7169261,61.1047683 31.9189775,61.1047683 C16.1221944,61.1047683 3.3167009,48.2981093 3.3167009,32.5001607 C3.3167009,16.7033775 16.1221944,3.89963233 31.9189775,3.89963233 C47.7169261,3.89963233 60.5224196,16.7033775 60.5224196,32.5001607" id="Fill-3" fill="#F65A60"></path>
                <path d="M60.5224196,32.5001607 C60.5224196,48.2981093 47.7169261,61.1047683 31.9189775,61.1047683 C16.1221944,61.1047683 3.3167009,48.2981093 3.3167009,32.5001607 C3.3167009,16.7033775 16.1221944,3.89963233 31.9189775,3.89963233 C47.7169261,3.89963233 60.5224196,16.7033775 60.5224196,32.5001607 Z" id="Stroke-5" stroke="#8E141D"></path>
                <path d="M46.9818952,42.794556 C46.9818952,44.2817508 45.7738408,45.4868914 44.2872287,45.4868914 L19.5515421,45.4868914 C18.0655128,45.4868914 16.8568756,44.2817508 16.8568756,42.794556 C16.8568756,41.3056129 18.0655128,40.0981412 19.5515421,40.0981412 L44.2872287,40.0981412 C45.7738408,40.0981412 46.9818952,41.3056129 46.9818952,42.794556" id="Fill-7" fill="#FFFFFF"></path>
                <path d="M46.9818952,42.794556 C46.9818952,44.2817508 45.7738408,45.4868914 44.2872287,45.4868914 L19.5515421,45.4868914 C18.0655128,45.4868914 16.8568756,44.2817508 16.8568756,42.794556 C16.8568756,41.3056129 18.0655128,40.0981412 19.5515421,40.0981412 L44.2872287,40.0981412 C45.7738408,40.0981412 46.9818952,41.3056129 46.9818952,42.794556 Z" id="Stroke-9" stroke="#FFFFFF" stroke-linecap="round" stroke-linejoin="round"></path>
                <path d="M46.9818952,32.1519053 C46.9818952,33.6420139 45.7738408,34.8483201 44.2872287,34.8483201 L19.5515421,34.8483201 C18.0655128,34.8483201 16.8568756,33.6420139 16.8568756,32.1519053 C16.8568756,30.6647105 18.0655128,29.4589871 19.5515421,29.4589871 L44.2872287,29.4589871 C45.7738408,29.4589871 46.9818952,30.6647105 46.9818952,32.1519053" id="Fill-11" fill="#FFFFFF"></path>
                <path d="M46.9818952,32.1519053 C46.9818952,33.6420139 45.7738408,34.8483201 44.2872287,34.8483201 L19.5515421,34.8483201 C18.0655128,34.8483201 16.8568756,33.6420139 16.8568756,32.1519053 C16.8568756,30.6647105 18.0655128,29.4589871 19.5515421,29.4589871 L44.2872287,29.4589871 C45.7738408,29.4589871 46.9818952,30.6647105 46.9818952,32.1519053 Z" id="Stroke-13" stroke="#FFFFFF" stroke-linecap="round" stroke-linejoin="round"></path>
                <path d="M46.9818952,21.5131591 C46.9818952,23.0021022 45.7738408,24.2072429 44.2872287,24.2072429 L19.5515421,24.2072429 C18.0655128,24.2072429 16.8568756,23.0021022 16.8568756,21.5131591 C16.8568756,20.0253815 18.0655128,18.8184926 19.5515421,18.8184926 L44.2872287,18.8184926 C45.7738408,18.8184926 46.9818952,20.0253815 46.9818952,21.5131591" id="Fill-15" fill="#FFFFFF"></path>
                <path d="M46.9818952,21.5131591 C46.9818952,23.0021022 45.7738408,24.2072429 44.2872287,24.2072429 L19.5515421,24.2072429 C18.0655128,24.2072429 16.8568756,23.0021022 16.8568756,21.5131591 C16.8568756,20.0253815 18.0655128,18.8184926 19.5515421,18.8184926 L44.2872287,18.8184926 C45.7738408,18.8184926 46.9818952,20.0253815 46.9818952,21.5131591 Z" id="Stroke-17" stroke="#FFFFFF" stroke-linecap="round" stroke-linejoin="round"></path>
            </g>
        </g>
    </g>
</svg>