<svg xmlns="http://www.w3.org/2000/svg" viewBox="0 0 62.4 68.5"><defs><style>.cls-1{fill:#00565d;}.cls-2{fill:#28d9c2;stroke:#00586c;stroke-miterlimit:10;}.cls-3{fill:#fff;stroke:#fff;stroke-linecap:round;stroke-linejoin:round;}</style></defs><g id="Layer_2" data-name="Layer 2"><g id="Layer_1-2" data-name="Layer 1"><path class="cls-1" d="M62.4,31.2A31.2,31.2,0,0,0,0,31.2v6.1a31.2,31.2,0,0,0,62.4,0Z"/><path class="cls-2" d="M59.1,31.2A28,28,0,1,1,31.2,3.3h0A27.9,27.9,0,0,1,59.1,31.2Z"/><path class="cls-3" d="M24.5,17.1c0-2.9,1.9-2.6,2.7-1.8l17.2,14a1.9,1.9,0,0,1,0,2.6h0L27.2,46c-.7.7-2.7.6-2.7-1.9Z"/></g></g></svg>