<svg xmlns="http://www.w3.org/2000/svg" xmlns:xlink="http://www.w3.org/1999/xlink" viewBox="0 0 286.74 91.38"><defs><style>.cls-1{fill:#8e141d;}.cls-2{fill:url(#linear-gradient);}.cls-3{fill:url(#linear-gradient-2);}.cls-4{fill:url(#linear-gradient-3);}</style><linearGradient id="linear-gradient" x1="1" y1="48.77" x2="80.35" y2="48.77" gradientUnits="userSpaceOnUse"><stop offset="0" stop-color="#fe7062"/><stop offset="1" stop-color="#ff928e"/></linearGradient><linearGradient id="linear-gradient-2" x1="206.39" y1="48.77" x2="285.74" y2="48.77" xlink:href="#linear-gradient"/><linearGradient id="linear-gradient-3" x1="38.42" y1="33.55" x2="250.32" y2="33.55" xlink:href="#linear-gradient"/></defs><title>资源 1077777</title><g id="图层_2" data-name="图层 2"><g id="Layer_1" data-name="Layer 1"><path class="cls-1" d="M0,86.68c0,2.6.72,4.7,1.62,4.7H77.73c.89,0,1.62-2.1,1.62-4.7V29c0-2.6-.73-4.71-1.62-4.71H1.62C.72,24.29,0,26.4,0,29L14,58.42Z"/><path class="cls-2" d="M1,77.61c0,2.6.72,4.71,1.62,4.71H78.73c.89,0,1.62-2.11,1.62-4.71V19.94c0-2.6-.73-4.71-1.62-4.71H2.62c-.9,0-1.62,2.11-1.62,4.71L15,50.17Z"/><polygon class="cls-1" points="38.77 71.93 76.9 81.6 80.39 80.87 80.39 46.07 39 41.58 38.77 71.93"/><path class="cls-1" d="M286.74,86.68c0,2.6-.73,4.7-1.62,4.7H209c-.89,0-1.62-2.1-1.62-4.7V29c0-2.6.73-4.71,1.62-4.71h76.11c.89,0,1.62,2.11,1.62,4.71L272.79,58.42Z"/><path class="cls-3" d="M285.74,77.61c0,2.6-.73,4.71-1.62,4.71H208c-.89,0-1.62-2.11-1.62-4.71V19.94c0-2.6.73-4.71,1.62-4.71h76.11c.89,0,1.62,2.11,1.62,4.71L271.79,50.17Z"/><polygon class="cls-1" points="247.96 71.93 209.84 81.6 206.35 80.87 206.35 46.07 247.74 41.58 247.96 71.93"/><path class="cls-4" d="M250.32,62.38c0,2.61-1.56,4.71-3.49,4.71H41.91c-1.93,0-3.49-2.1-3.49-4.71V4.71C38.42,2.11,40,0,41.91,0H246.83c1.93,0,3.49,2.11,3.49,4.71Z"/></g></g></svg>